{"title":"Os.Croods.2013.TS.XviD.Dublado-YanKeeS.avi","uid":8298912,"size":716775714,"categoryP":"video","categoryS":"movies","magnet":"?xt=urn:btih:6a0cd56f22210596c3ca0d41f7879588a0527ead&amp;dn=Os.Croods.2013.TS.XviD.Dublado-YanKeeS.avi&amp;tr=udp%3A%2F%2Ftracker.openbittorrent.com%3A80&amp;tr=udp%3A%2F%2Fopen.demonii.com%3A1337&amp;tr=udp%3A%2F%2Ftracker.coppersurfer.tk%3A6969&amp;tr=udp%3A%2F%2Fexodus.desync.com%3A6969","seeders":8,"leechers":0,"uploader":"homeropereira07","files":1,"time":1364219177,"description":"Os.Croods.2013.TS.XviD.Dublado-YanKeeS.avi\nFormat                                   : AVI\nFormat/Info                              : Audio Video Interleave\nFormat profile                           : OpenDML\nFile size                                : 684 MiB\nDuration                                 : 1h 29mn\nOverall bit rate                         : 1 068 Kbps\nWriting application                      : AVI-Mux GUI 1.16.11, Dec 15 2004  14:51:34\n\nVideo\nID                                       : 0\nFormat                                   : MPEG-4 Visual\nFormat profile                           : Advanced Simple@L5\nFormat settings, BVOP                    : No\nFormat settings, QPel                    : No\nFormat settings, GMC                     : No warppoints\nFormat settings, Matrix                  : Default (H.263)\nCodec ID                                 : XVID\nCodec ID/Hint                            : XviD\nDuration                                 : 1h 29mn\nBit rate                                 : 932 Kbps\nWidth                                    : 640 pixels\nHeight                                   : 304 pixels\nDisplay aspect ratio                     : 2.105\nFrame rate                               : 25.000 fps\nColor space                              : YUV\nChroma subsampling                       : 4:2:0\nBit depth                                : 8 bits\nScan type                                : Progressive\nCompression mode                         : Lossy\nBits/(Pixel*Frame)                       : 0.192\nStream size                              : 596 MiB (87%)\nWriting library                          : XviD 1.2.1 (UTC 2008-12-04)\n\nAudio\nID                                       : 1\nFormat                                   : MPEG Audio\nFormat version                           : Version 1\nFormat profile                           : Layer 3\nCodec ID                                 : 55\nCodec ID/Hint                            : MP3\nDuration                                 : 1h 29mn\nBit rate mode                            : Constant\nBit rate                                 : 128 Kbps\nChannel(s)                               : 2 channels\nSampling rate                            : 44.1 KHz\nCompression mode                         : Lossy\nStream size                              : 81.9 MiB (12%)\nAlignment                                : Aligned on interleaves\nInterleave, duration                     : 26 ms (0.65 video frame)\nInterleave, preload duration             : 182 ms\nTitle                                    : PTBR - YanKeeS\n\n","torrent":{"xt":"urn:btih:6a0cd56f22210596c3ca0d41f7879588a0527ead","amp;dn":"Os.Croods.2013.TS.XviD.Dublado-YanKeeS.avi","amp;tr":["udp%3A%2F%2Ftracker.openbittorrent.com%3A80","udp%3A%2F%2Fopen.demonii.com%3A1337","udp%3A%2F%2Ftracker.coppersurfer.tk%3A6969","udp%3A%2F%2Fexodus.desync.com%3A6969"],"infoHash":"6a0cd56f22210596c3ca0d41f7879588a0527ead","infoHashBuffer":{"type":"Buffer","data":[106,12,213,111,34,33,5,150,195,202,13,65,247,135,149,136,160,82,126,173]},"announce":[],"urlList":[]}}